# xmcd
#
# Track frame offsets:
#	150
#	17742
#	31665
#	43460
#	52915
#	61202
#	73152
#	85302
#	102692
#	114065
#	123872
#	134765
#	148587
#	160770
#	172477
#	188315
#	200197
#	214820
#	228152
#	243157
#	265817
#
# Disc length: 3655 seconds
#
# Revision: 0
# Processed by: cddbd v1.5.2PL0 Copyright (c) Steve Scherf et al.
# Submitted via: EZCDAudioConverter 1.3.4.1
#
DISCID=300e4515
DTITLE=Peter Thomas - Moonflowers and Mini-Skirts
DYEAR=2003
DGENRE=
TTITLE0=Opium
TTITLE1=Multi-Kolored Mini-Skirts
TTITLE2=Black Power
TTITLE3=11 Uhr 20 (Main Theme)
TTITLE4=Pozzolico
TTITLE5=Milky Way
TTITLE6=Under Control
TTITLE7=Moonflower Q 70
TTITLE8=Vergiss Mich, Wenn Du Kannst
TTITLE9=Rockin' Computer
TTITLE10=Power Boost
TTITLE11=Spiral Angst
TTITLE12=Meeting Palermo
TTITLE13=Flash Point
TTITLE14=Mein Wochenende
TTITLE15=Happening In White (Main Theme)
TTITLE16=Beige Turtleneck
TTITLE17=Malaparte Sinus
TTITLE18=Minoti On The Run
TTITLE19=Opium - Punjab Poppy Juice [Maxwell Implosion Remix]
TTITLE20=Bonus Beats
EXTD=
EXTT0=
EXTT1=
EXTT2=
EXTT3=
EXTT4=
EXTT5=
EXTT6=
EXTT7=
EXTT8=
EXTT9=
EXTT10=
EXTT11=
EXTT12=
EXTT13=
EXTT14=
EXTT15=
EXTT16=
EXTT17=
EXTT18=
EXTT19=
EXTT20=
PLAYORDER=
